<?xml version="1.0" encoding="UTF-8"?>
<svg xmlns="http://www.w3.org/2000/svg" version="1.1" viewBox="0 0 666.7 666.7">
  <defs>
    <style>
      .cls-1 {
        stroke-miterlimit: 133.3;
      }

      .cls-1, .cls-2 {
        fill: none;
        stroke: #00ffb3;
        stroke-width: 66.7px;
      }

      .cls-2 {
        stroke-linecap: round;
        stroke-linejoin: round;
      }
    </style>
  </defs>
  <!-- Generator: Adobe Illustrator 28.7.1, SVG Export Plug-In . SVG Version: 1.2.0 Build 142)  -->
  <g>
    <g id="Camada_1">
      <g id="Camada_1-2" data-name="Camada_1">
        <path class="cls-2" d="M383.2,242.8c-32.8-9.1-66.9-9.1-99.7,0-.6.2-1.2.3-1.7.5-3.5,1-7.2.3-10-1.8h0c-34.5-26-52.5-24.7-57-23.9h0c-.7,0-1.2.7-1.5,1.3,0,.2,0,.4-.2.5-7.1,20-8.2,42.2-3.2,62.9.3,1.2.6,2.4,1,3.6v.2c.3,1.1,0,2.1-.6,3h0c-.5.7-1,1.3-1.4,1.9-13.7,18.9-21.2,42.9-20.8,67.7,0,100.7,52.4,123.8,102.7,130.6h1.1c28,4.3,54.9,4,82.8-.7h.7c50.5-6.2,103.3-28.8,103.3-129.9.3-24.8-7.1-48.8-20.8-67.7-.5-.6-.9-1.2-1.3-1.8h0c-.7-1-1-2.1-.6-3.3h0c.4-1.2.7-2.5,1-3.7,5.1-20.8,3.9-43.1-3.4-63.1,0,0,0-.3,0-.4-.3-.7-.8-1.2-1.5-1.3h0c-4.5-.9-22.4-1.9-56.9,23.9h0c-2.9,2.1-6.5,2.8-10,1.8-.6-.2-1.2-.3-1.7-.5h0v.2Z"/>
        <path class="cls-1" d="M71.9,333.4c0-215.3,46.1-261.5,261.5-261.5s261.5,46.1,261.5,261.5-46.1,261.5-261.5,261.5-261.5-46.1-261.5-261.5Z"/>
      </g>
    </g>
  </g>
</svg>